<?xml version="1.0" ?><svg id="Layer_1" style="enable-background:new 0 0 128 128;" version="1.1" viewBox="0 0 128 128" xml:space="preserve" xmlns="http://www.w3.org/2000/svg" xmlns:xlink="http://www.w3.org/1999/xlink"><style type="text/css">
	.st0{fill:#31AF91;}
	.st1{fill:#FFFFFF;}
</style><g><circle class="st0" cx="64" cy="64" r="64"/></g><path class="st1" d="M89,74H78V54h11c8.3,0,15-6.7,15-15s-6.7-15-15-15s-15,6.7-15,15v11H54V39c0-8.3-6.7-15-15-15s-15,6.7-15,15  s6.7,15,15,15h11v20H39c-8.3,0-15,6.7-15,15s6.7,15,15,15s15-6.7,15-15V78h20v11c0,8.3,6.7,15,15,15s15-6.7,15-15S97.3,74,89,74z   M78,39c0-6.1,4.9-11,11-11s11,4.9,11,11s-4.9,11-11,11H78V39z M39,50c-6.1,0-11-4.9-11-11s4.9-11,11-11s11,4.9,11,11v11H39z M50,89  c0,6.1-4.9,11-11,11s-11-4.9-11-11s4.9-11,11-11h11V89z M54,74V54h20v20H54z M89,100c-6.1,0-11-4.9-11-11V78h11c6.1,0,11,4.9,11,11  S95.1,100,89,100z"/></svg>